<svg width="25" height="25" viewBox="0 0 25 25" fill="none" xmlns="http://www.w3.org/2000/svg">
<path d="M7.25937 7.25931C7.33194 7.18655 7.41815 7.12883 7.51306 7.08944C7.60798 7.05006 7.70973 7.02979 7.81249 7.02979C7.91525 7.02979 8.01701 7.05006 8.11192 7.08944C8.20683 7.12883 8.29305 7.18655 8.36562 7.25931L12.5 11.3952L16.6344 7.25931C16.707 7.18667 16.7932 7.12905 16.8881 7.08974C16.983 7.05043 17.0848 7.03019 17.1875 7.03019C17.2902 7.03019 17.3919 7.05043 17.4868 7.08974C17.5817 7.12905 17.668 7.18667 17.7406 7.25931C17.8133 7.33194 17.8709 7.41818 17.9102 7.51308C17.9495 7.60799 17.9697 7.70971 17.9697 7.81243C17.9697 7.91516 17.9495 8.01688 17.9102 8.11178C17.8709 8.20669 17.8133 8.29292 17.7406 8.36556L13.6047 12.4999L17.7406 16.6343C17.8133 16.7069 17.8709 16.7932 17.9102 16.8881C17.9495 16.983 17.9697 17.0847 17.9697 17.1874C17.9697 17.2902 17.9495 17.3919 17.9102 17.4868C17.8709 17.5817 17.8133 17.6679 17.7406 17.7406C17.668 17.8132 17.5817 17.8708 17.4868 17.9101C17.3919 17.9494 17.2902 17.9697 17.1875 17.9697C17.0848 17.9697 16.983 17.9494 16.8881 17.9101C16.7932 17.8708 16.707 17.8132 16.6344 17.7406L12.5 13.6046L8.36562 17.7406C8.29298 17.8132 8.20675 17.8708 8.11184 17.9101C8.01694 17.9494 7.91522 17.9697 7.81249 17.9697C7.70977 17.9697 7.60805 17.9494 7.51314 17.9101C7.41824 17.8708 7.332 17.8132 7.25937 17.7406C7.18673 17.6679 7.12911 17.5817 7.0898 17.4868C7.05049 17.3919 7.03026 17.2902 7.03026 17.1874C7.03026 17.0847 7.05049 16.983 7.0898 16.8881C7.12911 16.7932 7.18673 16.7069 7.25937 16.6343L11.3953 12.4999L7.25937 8.36556C7.18661 8.29299 7.12889 8.20677 7.0895 8.11186C7.05012 8.01694 7.02985 7.91519 7.02985 7.81243C7.02985 7.70967 7.05012 7.60792 7.0895 7.513C7.12889 7.41809 7.18661 7.33188 7.25937 7.25931Z" fill="#FF8911"/>
</svg>
