<svg width="19" height="19" viewBox="0 0 19 19" fill="none" xmlns="http://www.w3.org/2000/svg">
<path d="M3.27274 3.27274C3.35898 3.18629 3.46143 3.11769 3.57421 3.07089C3.687 3.02409 3.80792 3 3.93003 3C4.05214 3 4.17305 3.02409 4.28584 3.07089C4.39863 3.11769 4.50108 3.18629 4.58731 3.27274L9.50024 8.18753L14.4132 3.27274C14.4995 3.18643 14.602 3.11796 14.7147 3.07124C14.8275 3.02453 14.9484 3.00049 15.0705 3.00049C15.1925 3.00049 15.3134 3.02453 15.4262 3.07124C15.539 3.11796 15.6414 3.18643 15.7277 3.27274C15.8141 3.35906 15.8825 3.46153 15.9292 3.57431C15.976 3.68708 16 3.80796 16 3.93003C16 4.0521 15.976 4.17297 15.9292 4.28575C15.8825 4.39853 15.8141 4.501 15.7277 4.58731L10.813 9.50024L15.7277 14.4132C15.8141 14.4995 15.8825 14.602 15.9292 14.7147C15.976 14.8275 16 14.9484 16 15.0705C16 15.1925 15.976 15.3134 15.9292 15.4262C15.8825 15.539 15.8141 15.6414 15.7277 15.7277C15.6414 15.8141 15.539 15.8825 15.4262 15.9292C15.3134 15.976 15.1925 16 15.0705 16C14.9484 16 14.8275 15.976 14.7147 15.9292C14.602 15.8825 14.4995 15.8141 14.4132 15.7277L9.50024 10.813L4.58731 15.7277C4.501 15.8141 4.39853 15.8825 4.28575 15.9292C4.17297 15.976 4.0521 16 3.93003 16C3.80796 16 3.68708 15.976 3.57431 15.9292C3.46153 15.8825 3.35906 15.8141 3.27274 15.7277C3.18643 15.6414 3.11796 15.539 3.07124 15.4262C3.02453 15.3134 3.00049 15.1925 3.00049 15.0705C3.00049 14.9484 3.02453 14.8275 3.07124 14.7147C3.11796 14.602 3.18643 14.4995 3.27274 14.4132L8.18753 9.50024L3.27274 4.58731C3.18629 4.50108 3.11769 4.39863 3.07089 4.28584C3.02409 4.17305 3 4.05214 3 3.93003C3 3.80792 3.02409 3.687 3.07089 3.57421C3.11769 3.46143 3.18629 3.35898 3.27274 3.27274Z" fill="#FF8911"/>
</svg>
