<svg width="30" height="30" viewBox="0 0 30 30" fill="none" xmlns="http://www.w3.org/2000/svg">
<path d="M15 1C13.1615 1 11.341 1.35786 9.64243 2.05314C7.94387 2.74842 6.40053 3.76751 5.1005 5.05223C2.475 7.64682 1 11.1659 1 14.8352C1 20.9503 5.018 26.1385 10.576 27.9786C11.276 28.0893 11.5 27.6604 11.5 27.2868V24.9487C7.622 25.7788 6.796 23.0948 6.796 23.0948C6.152 21.4899 5.242 21.061 5.242 21.061C3.968 20.2032 5.34 20.2309 5.34 20.2309C6.74 20.3277 7.482 21.6559 7.482 21.6559C8.7 23.7588 10.758 23.1363 11.556 22.8042C11.682 21.9049 12.046 21.2962 12.438 20.9503C9.33 20.6044 6.068 19.4146 6.068 14.1434C6.068 12.6077 6.6 11.3764 7.51 10.3941C7.37 10.0482 6.88 8.60934 7.65 6.74159C7.65 6.74159 8.826 6.36804 11.5 8.15278C12.606 7.84841 13.81 7.69622 15 7.69622C16.19 7.69622 17.394 7.84841 18.5 8.15278C21.174 6.36804 22.35 6.74159 22.35 6.74159C23.12 8.60934 22.63 10.0482 22.49 10.3941C23.4 11.3764 23.932 12.6077 23.932 14.1434C23.932 19.4284 20.656 20.5906 17.534 20.9365C18.038 21.3654 18.5 22.2093 18.5 23.496V27.2868C18.5 27.6604 18.724 28.1031 19.438 27.9786C24.996 26.1247 29 20.9503 29 14.8352C29 13.0183 28.6379 11.2192 27.9343 9.54068C27.2307 7.86212 26.1995 6.33694 24.8995 5.05223C23.5995 3.76751 22.0561 2.74842 20.3576 2.05314C18.659 1.35786 16.8385 1 15 1Z" fill="white"/>
</svg>
