<svg width="19" height="19" viewBox="0 0 19 19" fill="none" xmlns="http://www.w3.org/2000/svg">
<path d="M17.7531 7.22059C17.6812 6.99897 17.5457 6.80339 17.3634 6.65822C17.1812 6.51305 16.9603 6.42471 16.7282 6.40419L12.3203 6.02419L10.5925 1.91544C10.5025 1.69984 10.3508 1.51569 10.1564 1.38615C9.962 1.25662 9.73361 1.1875 9.5 1.1875C9.2664 1.1875 9.03801 1.25662 8.8436 1.38615C8.6492 1.51569 8.49746 1.69984 8.4075 1.91544L6.68489 6.02419L2.27184 6.40641C2.03882 6.426 1.81677 6.51394 1.63353 6.65922C1.45029 6.80449 1.31402 7.00064 1.24181 7.22305C1.1696 7.44546 1.16467 7.68425 1.22762 7.90945C1.29058 8.13466 1.41863 8.33627 1.59571 8.48899L4.94372 11.4147L3.94028 15.7595C3.88722 15.9868 3.90236 16.2248 3.98381 16.4436C4.06525 16.6624 4.20939 16.8523 4.3982 16.9897C4.58701 17.127 4.81212 17.2056 5.04538 17.2157C5.27863 17.2258 5.50969 17.1669 5.70965 17.0464L9.49481 14.7456L13.2881 17.0464C13.4881 17.1669 13.7192 17.2258 13.9524 17.2157C14.1857 17.2056 14.4108 17.127 14.5996 16.9897C14.7884 16.8523 14.9325 16.6624 15.014 16.4436C15.0954 16.2248 15.1106 15.9868 15.0575 15.7595L14.0548 11.4102L17.4021 8.48899C17.5791 8.33574 17.7069 8.13356 17.7694 7.90787C17.8319 7.68219 17.8262 7.44307 17.7531 7.22059ZM16.6235 7.59169L13.2763 10.5129C13.1133 10.6546 12.9922 10.8381 12.9257 11.0435C12.8593 11.249 12.8501 11.4687 12.8992 11.6789L13.9049 16.0311L10.1145 13.7303C9.92961 13.6177 9.71726 13.5581 9.50075 13.5581C9.28423 13.5581 9.07188 13.6177 8.88696 13.7303L5.1018 16.0311L6.10079 11.6819C6.14988 11.4716 6.14072 11.2519 6.07429 11.0465C6.00785 10.8411 5.88666 10.6576 5.72375 10.5159L2.375 7.59614C2.37473 7.59392 2.37473 7.59168 2.375 7.58946L6.78657 7.20798C7.00195 7.18899 7.20806 7.11156 7.38267 6.98404C7.55728 6.85651 7.69376 6.68374 7.77739 6.48434L9.5 2.38079L11.2219 6.48434C11.3055 6.68374 11.442 6.85651 11.6166 6.98404C11.7912 7.11156 11.9973 7.18899 12.2127 7.20798L16.625 7.58946V7.59466L16.6235 7.59169Z" fill="#FF8911"/>
</svg>
