<svg width="19" height="19" viewBox="0 0 19 19" fill="none" xmlns="http://www.w3.org/2000/svg">
<path d="M17.4043 8.48899L14.057 11.4102L15.0597 15.7595C15.1128 15.9868 15.0976 16.2248 15.0162 16.4436C14.9348 16.6624 14.7906 16.8523 14.6018 16.9897C14.413 17.127 14.1879 17.2056 13.9546 17.2157C13.7214 17.2258 13.4903 17.1669 13.2904 17.0464L9.49704 14.7456L5.71188 17.0464C5.51191 17.1669 5.28086 17.2258 5.0476 17.2157C4.81435 17.2056 4.58924 17.127 4.40043 16.9897C4.21162 16.8523 4.06748 16.6624 3.98603 16.4436C3.90458 16.2248 3.88944 15.9868 3.9425 15.7595L4.94372 11.4147L1.59571 8.48899C1.41863 8.33627 1.29058 8.13466 1.22762 7.90945C1.16467 7.68425 1.1696 7.44546 1.24181 7.22305C1.31402 7.00064 1.45029 6.80449 1.63353 6.65922C1.81677 6.51394 2.03882 6.426 2.27184 6.40641L6.68489 6.02419L8.4075 1.91544C8.49746 1.69984 8.6492 1.51569 8.8436 1.38615C9.03801 1.25662 9.2664 1.1875 9.5 1.1875C9.73361 1.1875 9.962 1.25662 10.1564 1.38615C10.3508 1.51569 10.5025 1.69984 10.5925 1.91544L12.3203 6.02419L16.7319 6.40641C16.9649 6.426 17.187 6.51394 17.3702 6.65922C17.5534 6.80449 17.6897 7.00064 17.7619 7.22305C17.8341 7.44546 17.8391 7.68425 17.7761 7.90945C17.7131 8.13466 17.5851 8.33627 17.408 8.48899H17.4043Z" fill="#FF8911"/>
</svg>
