<svg width="19" height="19" viewBox="0 0 19 19" fill="none" xmlns="http://www.w3.org/2000/svg">
<g clip-path="url(#clip0_64_29)">
<path d="M8.64502 2.27039C8.73214 2.12089 8.85693 1.99685 9.00696 1.91063C9.15698 1.82442 9.32699 1.77905 9.50002 1.77905C9.67305 1.77905 9.84306 1.82442 9.99308 1.91063C10.1431 1.99685 10.2679 2.12089 10.355 2.27039L12.5677 6.06881L16.8649 6.9998C17.0339 7.03654 17.1904 7.11693 17.3186 7.23298C17.4469 7.34902 17.5425 7.49666 17.596 7.66118C17.6494 7.8257 17.6588 8.00135 17.6231 8.17062C17.5875 8.33988 17.5081 8.49686 17.3929 8.62589L14.4638 11.9042L14.9071 16.2781C14.9246 16.4504 14.8966 16.6242 14.8259 16.7822C14.7552 16.9402 14.6443 17.0769 14.5042 17.1787C14.3642 17.2805 14.1999 17.3437 14.0278 17.3621C13.8556 17.3805 13.6817 17.3534 13.5233 17.2836L9.50002 15.5102L5.47677 17.2836C5.31837 17.3534 5.14442 17.3805 4.97228 17.3621C4.80015 17.3437 4.63585 17.2805 4.49579 17.1787C4.35574 17.0769 4.24483 16.9402 4.17414 16.7822C4.10344 16.6242 4.07545 16.4504 4.09294 16.2781L4.53627 11.9042L1.6071 8.62668C1.4917 8.49766 1.41216 8.34062 1.37642 8.17125C1.34068 8.00188 1.35 7.82609 1.40344 7.66144C1.45688 7.4968 1.55257 7.34905 1.68097 7.23295C1.80936 7.11685 1.96597 7.03646 2.13514 6.9998L6.43231 6.06881L8.64502 2.27039Z" fill="#FF8911"/>
</g>
<defs>
<clipPath id="clip0_64_29">
<rect width="19" height="19" fill="white"/>
</clipPath>
</defs>
</svg>
