<svg width="28" height="27" viewBox="0 0 28 27" fill="none" xmlns="http://www.w3.org/2000/svg">
<g clip-path="url(#clip0_11_150)">
<path d="M11.5578 2.28367H16.4422C16.6581 2.28367 16.8652 2.36944 17.0179 2.52211C17.1705 2.67477 17.2563 2.88184 17.2563 3.09774V4.7259H10.7437V3.09774C10.7437 2.88184 10.8295 2.67477 10.9821 2.52211C11.1348 2.36944 11.3419 2.28367 11.5578 2.28367ZM18.8845 4.7259V3.09774C18.8845 2.45003 18.6271 1.82884 18.1691 1.37083C17.7111 0.912823 17.0899 0.655518 16.4422 0.655518L11.5578 0.655518C10.9101 0.655518 10.2889 0.912823 9.83086 1.37083C9.37285 1.82884 9.11554 2.45003 9.11554 3.09774V4.7259H3.41702C3.20111 4.7259 2.99405 4.81166 2.84138 4.96433C2.68871 5.117 2.60294 5.32407 2.60294 5.53997C2.60294 5.75588 2.68871 5.96294 2.84138 6.11561C2.99405 6.26828 3.20111 6.35405 3.41702 6.35405H4.29296L5.68177 23.7101C5.74727 24.5262 6.11772 25.2876 6.71935 25.8427C7.32099 26.3979 8.10966 26.7061 8.92831 26.7059H19.0717C19.8903 26.7061 20.679 26.3979 21.2806 25.8427C21.8823 25.2876 22.2527 24.5262 22.3182 23.7101L23.707 6.35405H24.583C24.7989 6.35405 25.006 6.26828 25.1586 6.11561C25.3113 5.96294 25.3971 5.75588 25.3971 5.53997C25.3971 5.32407 25.3113 5.117 25.1586 4.96433C25.006 4.81166 24.7989 4.7259 24.583 4.7259H18.8845ZM22.0724 6.35405L20.695 23.5799C20.6622 23.9879 20.477 24.3686 20.1762 24.6462C19.8753 24.9238 19.481 25.0779 19.0717 25.0778H8.92831C8.51899 25.0779 8.12465 24.9238 7.82383 24.6462C7.52301 24.3686 7.33779 23.9879 7.30504 23.5799L5.92762 6.35405H22.0724ZM9.8824 7.9822C10.0979 7.96975 10.3094 8.04336 10.4707 8.18685C10.6319 8.33035 10.7295 8.53198 10.7421 8.74743L11.5561 22.5867C11.5647 22.7996 11.4894 23.0074 11.3465 23.1655C11.2035 23.3235 11.0043 23.4192 10.7916 23.432C10.5789 23.4448 10.3696 23.3737 10.2088 23.2339C10.0479 23.0941 9.94827 22.8968 9.93125 22.6844L9.11554 8.84512C9.10893 8.73817 9.1235 8.63097 9.15841 8.52966C9.19333 8.42836 9.24789 8.33494 9.31899 8.25477C9.39008 8.1746 9.4763 8.10925 9.57271 8.06248C9.66911 8.01571 9.7738 7.98842 9.88078 7.9822H9.8824ZM18.1176 7.9822C18.2246 7.98842 18.3293 8.01571 18.4257 8.06248C18.5221 8.10925 18.6083 8.1746 18.6794 8.25477C18.7505 8.33494 18.805 8.42836 18.84 8.52966C18.8749 8.63097 18.8894 8.73817 18.8828 8.84512L18.0687 22.6844C18.0644 22.7926 18.0385 22.8988 17.9926 22.9969C17.9467 23.0949 17.8817 23.1828 17.8014 23.2555C17.7211 23.3281 17.6271 23.384 17.525 23.4198C17.4228 23.4557 17.3145 23.4708 17.2065 23.4643C17.0984 23.4578 16.9927 23.4299 16.8956 23.382C16.7985 23.3342 16.7119 23.2674 16.6408 23.1857C16.5698 23.104 16.5158 23.0089 16.482 22.9061C16.4482 22.8032 16.4352 22.6946 16.4439 22.5867L17.2579 8.74743C17.2705 8.53198 17.3681 8.33035 17.5293 8.18685C17.6906 8.04336 17.9021 7.96975 18.1176 7.9822ZM14 7.9822C14.2159 7.9822 14.423 8.06797 14.5756 8.22064C14.7283 8.3733 14.8141 8.58037 14.8141 8.79627V22.6356C14.8141 22.8515 14.7283 23.0585 14.5756 23.2112C14.423 23.3639 14.2159 23.4496 14 23.4496C13.7841 23.4496 13.577 23.3639 13.4244 23.2112C13.2717 23.0585 13.1859 22.8515 13.1859 22.6356V8.79627C13.1859 8.58037 13.2717 8.3733 13.4244 8.22064C13.577 8.06797 13.7841 7.9822 14 7.9822Z" fill="#FF8911"/>
</g>
<defs>
<clipPath id="clip0_11_150">
<rect width="26.0504" height="26.0504" fill="white" transform="translate(0.974789 0.655518)"/>
</clipPath>
</defs>
</svg>
