<svg width="287" height="48" viewBox="0 0 287 48" fill="none" xmlns="http://www.w3.org/2000/svg">
<path d="M15.6 31.72V39H8.4V31.8L0.72 16.2H8.04L11.08 23.6C11.4 24.3467 11.6933 25.1333 11.96 25.96H12.04C12.3333 25.0533 12.6267 24.24 12.92 23.52L15.92 16.2H23.2L15.6 31.72ZM31.9106 39.52C28.7106 39.52 26.3106 38.7733 24.7106 37.28C23.1373 35.76 22.3506 33.3733 22.3506 30.12C22.3506 28.3333 22.5106 26.7733 22.8306 25.44C23.1773 24.08 23.5906 23.1333 24.0706 22.6C24.684 21.9067 25.804 21.3333 27.4306 20.88C29.084 20.4267 30.6306 20.2 32.0706 20.2C35.5106 20.2 37.964 20.9333 39.4306 22.4C40.8973 23.8667 41.6306 26.2133 41.6306 29.44C41.6306 32.9067 40.844 35.4533 39.2706 37.08C37.6973 38.7067 35.244 39.52 31.9106 39.52ZM32.0306 34.84C33.0706 34.84 33.7506 34.48 34.0706 33.76C34.3906 33.0133 34.5506 31.7067 34.5506 29.84C34.5506 28.5333 34.484 27.5333 34.3506 26.84C34.2173 26.12 33.964 25.6 33.5906 25.28C33.244 24.9333 32.6973 24.76 31.9506 24.76C30.884 24.76 30.2706 24.8533 30.1106 25.04C29.8973 25.2267 29.724 25.8133 29.5906 26.8C29.4573 27.7867 29.3906 28.8133 29.3906 29.88C29.3906 31.6933 29.564 32.9733 29.9106 33.72C30.284 34.4667 30.9906 34.84 32.0306 34.84ZM62.6416 20.6V39H57.0816L56.3216 35.92C54.4016 38.24 52.1082 39.4 49.4416 39.4C48.4816 39.4 47.5749 39.2667 46.7216 39C45.8949 38.7333 45.2682 38.3467 44.8416 37.84C44.6016 37.5467 44.4149 36.8133 44.2816 35.64C44.1749 34.4667 44.1216 32.68 44.1216 30.28V20.6H50.9616V30.2C50.9616 30.7333 50.9749 31.36 51.0016 32.08C51.0282 32.8 51.1082 33.2533 51.2416 33.44C51.4282 33.7067 51.9616 33.84 52.8416 33.84L53.4816 33.8C54.2282 33.7733 55.0016 33.6 55.8016 33.28V20.6H62.6416ZM77.3213 20.2C77.6679 20.2 78.0279 20.24 78.4013 20.32C78.8013 20.4 79.0946 20.4933 79.2813 20.6C79.2813 21.1867 79.2146 22.16 79.0813 23.52C78.9479 24.8533 78.8279 25.8 78.7213 26.36C78.4546 26.3333 77.9613 26.32 77.2413 26.32C75.5613 26.32 74.0679 26.4133 72.7613 26.6V39H65.9213V20.6H71.6413L72.4413 23.56H72.4813C73.2546 22.5467 74.0813 21.7333 74.9613 21.12C75.8413 20.5067 76.6279 20.2 77.3213 20.2ZM102.573 38.44C100.413 39.16 97.9998 39.52 95.3331 39.52C92.3465 39.52 90.1065 38.7733 88.6131 37.28C87.1465 35.76 86.4131 33.4 86.4131 30.2C86.4131 28.6267 86.6265 27.08 87.0531 25.56C87.4798 24.0133 87.9331 22.9733 88.4131 22.44C88.9731 21.8267 90.0665 21.3067 91.6931 20.88C93.3465 20.4533 95.0531 20.24 96.8131 20.24C98.6531 20.24 100.506 20.4 102.373 20.72C102.32 21.3867 102.226 22.1733 102.093 23.08C101.986 23.96 101.866 24.7467 101.733 25.44C100.08 25.3333 98.5198 25.28 97.0531 25.28C95.6131 25.28 94.6931 25.36 94.2931 25.52C94.0798 25.6 93.8798 26.1467 93.6931 27.16C93.5331 28.1733 93.4531 29.12 93.4531 30C93.4531 31.1733 93.6131 32.08 93.9331 32.72C94.2798 33.3333 94.8131 33.76 95.5331 34C96.2531 34.24 97.2265 34.36 98.4531 34.36C98.9865 34.36 100.16 34.3067 101.973 34.2L102.573 38.44ZM104.987 15L111.827 14.72V39H104.987V15ZM118.778 18.32C117.871 18.32 117.085 18.0133 116.418 17.4C115.778 16.7867 115.458 16.0533 115.458 15.2C115.458 14.3467 115.778 13.6133 116.418 13C117.085 12.3867 117.871 12.08 118.778 12.08C119.685 12.08 120.458 12.3867 121.098 13C121.738 13.6133 122.058 14.3467 122.058 15.2C122.058 16.0533 121.738 16.7867 121.098 17.4C120.458 18.0133 119.685 18.32 118.778 18.32ZM115.338 20.6H122.178V39H115.338V20.6ZM138.21 20.2C140.13 20.2 141.65 20.84 142.77 22.12C143.916 23.3733 144.49 25.5733 144.49 28.72C144.49 31.0667 144.263 32.9867 143.81 34.48C143.356 35.9467 142.836 36.92 142.25 37.4C141.663 37.88 140.636 38.2667 139.17 38.56C137.73 38.8533 136.236 39 134.69 39C134.236 39 133.476 38.9733 132.41 38.92V44.6L125.57 44.88V20.6H131.17L131.85 23.44C132.543 22.4533 133.423 21.6667 134.49 21.08C135.583 20.4933 136.823 20.2 138.21 20.2ZM136.61 34.12C136.903 33.9067 137.116 33.3067 137.25 32.32C137.383 31.3067 137.45 30.3467 137.45 29.44C137.45 27.9467 137.263 26.84 136.89 26.12C136.516 25.4 135.77 25.04 134.65 25.04C133.85 25.04 133.103 25.12 132.41 25.28V34.16L133.53 34.28C133.876 34.3067 134.37 34.32 135.01 34.32C135.916 34.32 136.45 34.2533 136.61 34.12ZM159.531 20.2C161.611 20.2 163.211 20.8267 164.331 22.08C165.478 23.3333 166.051 25.5467 166.051 28.72C166.051 31.04 165.811 33.0267 165.331 34.68C164.878 36.3067 164.358 37.3467 163.771 37.8C163.078 38.36 162.051 38.7733 160.691 39.04C159.331 39.3067 157.785 39.44 156.051 39.44C154.718 39.44 153.225 39.3333 151.571 39.12C149.918 38.9333 148.438 38.6267 147.131 38.2V15L154.051 14.72V18.48C154.051 18.6933 154.038 19.1867 154.011 19.96C154.011 20.7333 153.985 21.3867 153.931 21.92C153.878 22.4267 153.798 22.8133 153.691 23.08L153.931 23.36C154.545 22.4267 155.318 21.6667 156.251 21.08C157.185 20.4933 158.278 20.2 159.531 20.2ZM158.411 34.64C158.571 34.3733 158.705 33.7467 158.811 32.76C158.945 31.7733 159.011 30.8267 159.011 29.92C159.011 28.8533 158.958 28.0133 158.851 27.4C158.771 26.7867 158.545 26.3067 158.171 25.96C157.825 25.5867 157.278 25.4 156.531 25.4C155.865 25.4 155.011 25.4933 153.971 25.68V34.72C154.958 34.88 155.985 34.96 157.051 34.96C157.825 34.96 158.278 34.8533 158.411 34.64ZM177.575 39.52C174.375 39.52 171.975 38.7733 170.375 37.28C168.801 35.76 168.015 33.3733 168.015 30.12C168.015 28.3333 168.175 26.7733 168.495 25.44C168.841 24.08 169.255 23.1333 169.735 22.6C170.348 21.9067 171.468 21.3333 173.095 20.88C174.748 20.4267 176.295 20.2 177.735 20.2C181.175 20.2 183.628 20.9333 185.095 22.4C186.561 23.8667 187.295 26.2133 187.295 29.44C187.295 32.9067 186.508 35.4533 184.935 37.08C183.361 38.7067 180.908 39.52 177.575 39.52ZM177.695 34.84C178.735 34.84 179.415 34.48 179.735 33.76C180.055 33.0133 180.215 31.7067 180.215 29.84C180.215 28.5333 180.148 27.5333 180.015 26.84C179.881 26.12 179.628 25.6 179.255 25.28C178.908 24.9333 178.361 24.76 177.615 24.76C176.548 24.76 175.935 24.8533 175.775 25.04C175.561 25.2267 175.388 25.8133 175.255 26.8C175.121 27.7867 175.055 28.8133 175.055 29.88C175.055 31.6933 175.228 32.9733 175.575 33.72C175.948 34.4667 176.655 34.84 177.695 34.84ZM200.866 39L200.226 36.48C198.999 38.48 197.292 39.48 195.106 39.48C193.319 39.48 191.852 38.9867 190.706 38C189.586 36.9867 189.026 35.5733 189.026 33.76C189.026 32.64 189.346 31.6667 189.986 30.84C190.652 29.9867 191.559 29.3867 192.706 29.04C194.199 28.6133 196.506 28.3733 199.626 28.32C199.626 26.56 199.546 25.6267 199.386 25.52C199.252 25.4133 198.826 25.36 198.106 25.36C197.652 25.36 197.026 25.3867 196.226 25.44C194.946 25.4933 193.212 25.64 191.026 25.88C190.812 24.44 190.652 22.8933 190.546 21.24C191.959 20.9467 193.439 20.7067 194.986 20.52C196.532 20.3067 197.919 20.2 199.146 20.2C201.279 20.2 202.879 20.56 203.946 21.28C205.012 21.9733 205.706 22.8933 206.026 24.04C206.346 25.1867 206.492 26.64 206.466 28.4L206.426 34.28L206.546 39H200.866ZM197.426 35C198.119 35 198.852 34.8667 199.626 34.6V31.64H199.306C197.332 31.64 196.239 31.7467 196.026 31.96C195.892 32.0933 195.786 32.2933 195.706 32.56C195.652 32.8267 195.626 33.08 195.626 33.32C195.626 33.96 195.772 34.4 196.066 34.64C196.359 34.88 196.812 35 197.426 35ZM220.954 20.2C221.301 20.2 221.661 20.24 222.034 20.32C222.434 20.4 222.727 20.4933 222.914 20.6C222.914 21.1867 222.847 22.16 222.714 23.52C222.581 24.8533 222.461 25.8 222.354 26.36C222.087 26.3333 221.594 26.32 220.874 26.32C219.194 26.32 217.701 26.4133 216.394 26.6V39H209.554V20.6H215.274L216.074 23.56H216.114C216.887 22.5467 217.714 21.7333 218.594 21.12C219.474 20.5067 220.261 20.2 220.954 20.2ZM243.03 14.72V39H237.39L236.83 35.92C236.297 36.96 235.51 37.7867 234.47 38.4C233.43 39.0133 232.257 39.32 230.95 39.32C228.87 39.32 227.204 38.5733 225.95 37.08C224.724 35.5867 224.11 33.3467 224.11 30.36C224.11 28.0933 224.377 26.2267 224.91 24.76C225.444 23.2933 226.07 22.24 226.79 21.6C227.244 21.2 228.164 20.8667 229.55 20.6C230.964 20.3333 232.217 20.2 233.31 20.2C234.27 20.2 235.257 20.2933 236.27 20.48C236.19 19.2 236.15 18.4933 236.15 18.36V15L243.03 14.72ZM233.95 33.96C234.67 33.96 235.417 33.84 236.19 33.6V24.92C235.417 24.8133 234.564 24.76 233.63 24.76C232.83 24.76 232.324 24.8267 232.11 24.96C231.817 25.1733 231.577 25.7867 231.39 26.8C231.23 27.7867 231.15 28.8267 231.15 29.92C231.15 31.5467 231.39 32.6267 231.87 33.16C232.377 33.6933 233.07 33.96 233.95 33.96Z" fill="#FF8911"/>
<rect x="253" y="17" width="23" height="23" rx="5" fill="#FF8911"/>
<rect x="261" y="8" width="25" height="25" rx="6" fill="#FF8911" stroke="#FFF8EE" stroke-width="2"/>
</svg>
