<svg width="189" height="25" viewBox="0 0 189 25" fill="none" xmlns="http://www.w3.org/2000/svg">
<path d="M9.80275 15.9676V20.7636H5.05949V16.0203L0 5.74326H4.82232L6.82504 10.6183C7.03585 11.1102 7.22909 11.6284 7.40477 12.173H7.45747C7.65072 11.5757 7.84396 11.0399 8.0372 10.5656L10.0136 5.74326H14.8095L9.80275 15.9676Z" fill="#FF8911"/>
<path d="M20.548 21.1062C18.4399 21.1062 16.8588 20.6143 15.8047 19.6305C14.7682 18.6291 14.25 17.0568 14.25 14.9136C14.25 13.7365 14.3554 12.7088 14.5662 11.8305C14.7946 10.9345 15.0669 10.3108 15.3831 9.95949C15.7871 9.50274 16.525 9.12503 17.5966 8.82638C18.6858 8.52773 19.7047 8.37841 20.6534 8.37841C22.9196 8.37841 24.5358 8.86152 25.5021 9.82774C26.4683 10.794 26.9514 12.3399 26.9514 14.4656C26.9514 16.7494 26.4331 18.4271 25.3967 19.4987C24.3602 20.5704 22.7439 21.1062 20.548 21.1062ZM20.627 18.0231C21.3122 18.0231 21.7602 17.7859 21.971 17.3116C22.1818 16.8197 22.2872 15.9589 22.2872 14.7291C22.2872 13.8683 22.2433 13.2095 22.1554 12.7528C22.0676 12.2784 21.9007 11.9359 21.6547 11.725C21.4264 11.4967 21.0662 11.3825 20.5743 11.3825C19.8716 11.3825 19.4676 11.444 19.3622 11.5669C19.2216 11.6899 19.1074 12.0764 19.0196 12.7264C18.9318 13.3764 18.8878 14.0528 18.8878 14.7555C18.8878 15.9501 19.002 16.7933 19.2304 17.2852C19.4764 17.7771 19.9419 18.0231 20.627 18.0231Z" fill="#FF8911"/>
<path d="M40.7931 8.64192V20.7636H37.1303L36.6296 18.7345C35.3647 20.2629 33.8539 21.0271 32.0971 21.0271C31.4647 21.0271 30.8674 20.9393 30.3052 20.7636C29.7606 20.5879 29.3478 20.3332 29.0667 19.9994C28.9086 19.8062 28.7856 19.3231 28.6978 18.5501C28.6275 17.7771 28.5924 16.6001 28.5924 15.019V8.64192H33.0985V14.9663C33.0985 15.3176 33.1073 15.7305 33.1248 16.2048C33.1424 16.6791 33.1951 16.9778 33.283 17.1007C33.4059 17.2764 33.7573 17.3643 34.337 17.3643L34.7586 17.3379C35.2505 17.3203 35.76 17.2062 36.287 16.9953V8.64192H40.7931Z" fill="#FF8911"/>
<path d="M50.4639 8.37841C50.6923 8.37841 50.9295 8.40476 51.1754 8.45746C51.4389 8.51016 51.6322 8.57165 51.7551 8.64192C51.7551 9.02841 51.7112 9.66963 51.6234 10.5656C51.5356 11.444 51.4565 12.0676 51.3862 12.4365C51.2105 12.419 50.8855 12.4102 50.4112 12.4102C49.3045 12.4102 48.3207 12.4717 47.4599 12.5946V20.7636H42.9537V8.64192H46.722L47.249 10.5919H47.2754C47.7849 9.92436 48.3295 9.38855 48.9092 8.98449C49.4889 8.58043 50.0072 8.37841 50.4639 8.37841Z" fill="#FF8911"/>
<path d="M67.0995 20.3947C65.6766 20.869 64.0867 21.1062 62.3299 21.1062C60.3623 21.1062 58.8867 20.6143 57.9029 19.6305C56.9366 18.6291 56.4535 17.0744 56.4535 14.9663C56.4535 13.9298 56.5941 12.9109 56.8752 11.9095C57.1562 10.8906 57.4549 10.2054 57.7711 9.85409C58.14 9.45003 58.8603 9.10746 59.9319 8.82638C61.0211 8.5453 62.1455 8.40476 63.3049 8.40476C64.5171 8.40476 65.738 8.51016 66.9678 8.72098C66.9326 9.16017 66.8712 9.67841 66.7833 10.2757C66.713 10.8554 66.634 11.3737 66.5462 11.8305C65.457 11.7602 64.4292 11.725 63.463 11.725C62.5144 11.725 61.9083 11.7777 61.6448 11.8832C61.5042 11.9359 61.3725 12.296 61.2495 12.9636C61.1441 13.6311 61.0914 14.2548 61.0914 14.8345C61.0914 15.6075 61.1968 16.2048 61.4076 16.6264C61.636 17.0305 61.9873 17.3116 62.4617 17.4697C62.936 17.6278 63.5772 17.7068 64.3853 17.7068C64.7367 17.7068 65.5097 17.6717 66.7043 17.6014L67.0995 20.3947Z" fill="#FF8911"/>
<path d="M68.6895 4.95271L73.1956 4.76825V20.7636H68.6895V4.95271Z" fill="#FF8911"/>
<path d="M77.7752 7.13989C77.1779 7.13989 76.6596 6.93786 76.2204 6.5338C75.7988 6.12975 75.588 5.64663 75.588 5.08447C75.588 4.5223 75.7988 4.03919 76.2204 3.63514C76.6596 3.23108 77.1779 3.02905 77.7752 3.02905C78.3725 3.02905 78.8819 3.23108 79.3036 3.63514C79.7252 4.03919 79.936 4.5223 79.936 5.08447C79.936 5.64663 79.7252 6.12975 79.3036 6.5338C78.8819 6.93786 78.3725 7.13989 77.7752 7.13989ZM75.509 8.64192H80.0151V20.7636H75.509V8.64192Z" fill="#FF8911"/>
<path d="M90.5764 8.37841C91.8413 8.37841 92.8427 8.80003 93.5805 9.64328C94.3359 10.469 94.7136 11.9183 94.7136 13.9913C94.7136 15.5372 94.5643 16.8021 94.2657 17.7859C93.967 18.7521 93.6244 19.3933 93.2379 19.7095C92.8515 20.0258 92.1751 20.2805 91.2089 20.4737C90.2602 20.667 89.2764 20.7636 88.2575 20.7636C87.9589 20.7636 87.4582 20.746 86.7555 20.7109V24.4528L82.2494 24.6373V8.64192H85.9386L86.3866 10.5129C86.8433 9.86287 87.423 9.34463 88.1258 8.95814C88.846 8.57165 89.6629 8.37841 90.5764 8.37841ZM89.5224 17.5487C89.7156 17.4082 89.8562 17.0129 89.944 16.3629C90.0319 15.6953 90.0758 15.0629 90.0758 14.4656C90.0758 13.4818 89.9528 12.7528 89.7068 12.2784C89.4609 11.8041 88.969 11.5669 88.2312 11.5669C87.7041 11.5669 87.2122 11.6196 86.7555 11.725V17.5751L87.4933 17.6541C87.7217 17.6717 88.0467 17.6805 88.4683 17.6805C89.0656 17.6805 89.417 17.6366 89.5224 17.5487Z" fill="#FF8911"/>
<path d="M104.623 8.37841C105.993 8.37841 107.047 8.79125 107.785 9.61693C108.54 10.4426 108.918 11.9007 108.918 13.9913C108.918 15.5197 108.76 16.8285 108.444 17.9176C108.145 18.9893 107.803 19.6744 107.416 19.9731C106.959 20.342 106.283 20.6143 105.387 20.79C104.491 20.9656 103.472 21.0535 102.33 21.0535C101.452 21.0535 100.468 20.9832 99.3789 20.8427C98.2897 20.7197 97.3147 20.5177 96.4539 20.2366V4.95271L101.013 4.76825V7.24529C101.013 7.38583 101.004 7.71084 100.986 8.2203C100.986 8.72976 100.969 9.16017 100.934 9.51152C100.898 9.84531 100.846 10.1 100.776 10.2757L100.934 10.4602C101.338 9.84531 101.847 9.34463 102.462 8.95814C103.077 8.57165 103.797 8.37841 104.623 8.37841ZM103.885 17.8913C103.99 17.7156 104.078 17.3028 104.148 16.6528C104.236 16.0028 104.28 15.3791 104.28 14.7818C104.28 14.0791 104.245 13.5257 104.175 13.1217C104.122 12.7176 103.973 12.4014 103.727 12.173C103.498 11.9271 103.138 11.8041 102.646 11.8041C102.207 11.8041 101.645 11.8656 100.96 11.9886V17.944C101.61 18.0494 102.286 18.1021 102.989 18.1021C103.498 18.1021 103.797 18.0318 103.885 17.8913Z" fill="#FF8911"/>
<path d="M116.51 21.1062C114.401 21.1062 112.82 20.6143 111.766 19.6305C110.73 18.6291 110.212 17.0568 110.212 14.9136C110.212 13.7365 110.317 12.7088 110.528 11.8305C110.756 10.9345 111.028 10.3108 111.345 9.95949C111.749 9.50274 112.487 9.12503 113.558 8.82638C114.647 8.52773 115.666 8.37841 116.615 8.37841C118.881 8.37841 120.497 8.86152 121.464 9.82774C122.43 10.794 122.913 12.3399 122.913 14.4656C122.913 16.7494 122.395 18.4271 121.358 19.4987C120.322 20.5704 118.706 21.1062 116.51 21.1062ZM116.589 18.0231C117.274 18.0231 117.722 17.7859 117.933 17.3116C118.143 16.8197 118.249 15.9589 118.249 14.7291C118.249 13.8683 118.205 13.2095 118.117 12.7528C118.029 12.2784 117.862 11.9359 117.616 11.725C117.388 11.4967 117.028 11.3825 116.536 11.3825C115.833 11.3825 115.429 11.444 115.324 11.5669C115.183 11.6899 115.069 12.0764 114.981 12.7264C114.893 13.3764 114.849 14.0528 114.849 14.7555C114.849 15.9501 114.964 16.7933 115.192 17.2852C115.438 17.7771 115.904 18.0231 116.589 18.0231Z" fill="#FF8911"/>
<path d="M131.853 20.7636L131.432 19.1035C130.624 20.421 129.499 21.0798 128.059 21.0798C126.882 21.0798 125.916 20.7548 125.16 20.1048C124.422 19.4372 124.053 18.5062 124.053 17.3116C124.053 16.5737 124.264 15.9325 124.686 15.3879C125.125 14.8257 125.722 14.4305 126.478 14.2021C127.461 13.921 128.981 13.7629 131.036 13.7278C131.036 12.5683 130.984 11.9534 130.878 11.8832C130.791 11.8129 130.509 11.7777 130.035 11.7777C129.736 11.7777 129.324 11.7953 128.797 11.8305C127.953 11.8656 126.811 11.9622 125.371 12.1203C125.23 11.1717 125.125 10.1527 125.055 9.06354C125.986 8.8703 126.961 8.71219 127.98 8.58922C128.999 8.44868 129.912 8.37841 130.72 8.37841C132.126 8.37841 133.18 8.61557 133.882 9.0899C134.585 9.54665 135.042 10.1527 135.253 10.9081C135.464 11.6636 135.56 12.621 135.543 13.7805L135.516 17.6541L135.595 20.7636H131.853ZM129.587 18.1285C130.044 18.1285 130.527 18.0406 131.036 17.8649V15.9149H130.826C129.526 15.9149 128.805 15.9852 128.665 16.1257C128.577 16.2136 128.507 16.3453 128.454 16.521C128.419 16.6967 128.401 16.8636 128.401 17.0217C128.401 17.4433 128.498 17.7332 128.691 17.8913C128.884 18.0494 129.183 18.1285 129.587 18.1285Z" fill="#FF8911"/>
<path d="M145.087 8.37841C145.316 8.37841 145.553 8.40476 145.799 8.45746C146.062 8.51016 146.256 8.57165 146.379 8.64192C146.379 9.02841 146.335 9.66963 146.247 10.5656C146.159 11.444 146.08 12.0676 146.01 12.4365C145.834 12.419 145.509 12.4102 145.035 12.4102C143.928 12.4102 142.944 12.4717 142.083 12.5946V20.7636H137.577V8.64192H141.345L141.872 10.5919H141.899C142.408 9.92436 142.953 9.38855 143.533 8.98449C144.112 8.58043 144.631 8.37841 145.087 8.37841Z" fill="#FF8911"/>
<path d="M159.631 4.76825V20.7636H155.915L155.546 18.7345C155.195 19.4197 154.677 19.9643 153.992 20.3683C153.307 20.7724 152.534 20.9744 151.673 20.9744C150.303 20.9744 149.205 20.4825 148.379 19.4987C147.571 18.5149 147.167 17.0393 147.167 15.0717C147.167 13.5784 147.342 12.3487 147.694 11.3825C148.045 10.4163 148.458 9.72233 148.932 9.30071C149.231 9.03719 149.837 8.8176 150.75 8.64192C151.682 8.46624 152.507 8.37841 153.228 8.37841C153.86 8.37841 154.51 8.43989 155.178 8.56287C155.125 7.71962 155.098 7.25408 155.098 7.16624V4.95271L159.631 4.76825ZM153.649 17.4433C154.123 17.4433 154.615 17.3643 155.125 17.2062V11.4879C154.615 11.4176 154.053 11.3825 153.438 11.3825C152.911 11.3825 152.578 11.4264 152.437 11.5142C152.244 11.6548 152.086 12.0588 151.963 12.7264C151.857 13.3764 151.805 14.0615 151.805 14.7818C151.805 15.8534 151.963 16.5649 152.279 16.9163C152.613 17.2676 153.069 17.4433 153.649 17.4433Z" fill="#FF8911"/>
<path d="M166.199 9.27027C166.199 7.61341 167.542 6.27026 169.199 6.27026H178.351C180.008 6.27026 181.351 7.61341 181.351 9.27026V18.4224C181.351 20.0792 180.008 21.4224 178.351 21.4224H169.199C167.542 21.4224 166.199 20.0792 166.199 18.4224V9.27027Z" fill="#FF8911"/>
<path d="M184.28 0.5H175.128C173.195 0.5 171.628 2.06701 171.628 4V13.1521C171.628 15.0851 173.195 16.6521 175.128 16.6521H184.28C186.213 16.6521 187.78 15.0851 187.78 13.1521V4C187.78 2.067 186.213 0.5 184.28 0.5Z" fill="#FF8911" stroke="#FFF8EE"/>
</svg>
